<svg id="Layer_1" data-name="Layer 1" xmlns="http://www.w3.org/2000/svg" xmlns:xlink="http://www.w3.org/1999/xlink" viewBox="0 0 143.05 115.19"><defs><style>.cls-1{fill:none;}.cls-2{clip-path:url(#clip-path);}.cls-3{fill:#fff;}</style><clipPath id="clip-path" transform="translate(-7.45 0)"><rect class="cls-1" width="158" height="126"/></clipPath></defs><g class="cls-2"><rect x="0.55" width="140" height="91"/><path class="cls-3" d="M22.62,0V91H10.56V0ZM77.56,0,39.75,42.44,18.5,64.5l-2-12.87L32.5,34,63.06,0ZM65.94,91,32.25,46.63l7.19-9.57L80.31,91Z" transform="translate(-7.45 0)"/><path class="cls-3" d="M121,48.44H97.94l-.13-9.69h20.94A21.76,21.76,0,0,0,127.81,37a13.62,13.62,0,0,0,6-5A13.94,13.94,0,0,0,136,24.13,15.24,15.24,0,0,0,134.06,16a10.67,10.67,0,0,0-5.81-4.62,27.62,27.62,0,0,0-9.87-1.5H100.62V91H88.56V0h29.82a49.53,49.53,0,0,1,12.5,1.44,24.34,24.34,0,0,1,9.31,4.37,18.63,18.63,0,0,1,5.87,7.5,27,27,0,0,1,2,10.94,18.77,18.77,0,0,1-2.87,10.19,22.1,22.1,0,0,1-8,7.37,31.3,31.3,0,0,1-11.88,3.69ZM120.44,91H93.19L100,81.19h20.44a21.7,21.7,0,0,0,9.75-2,14.31,14.31,0,0,0,6.19-5.63,17.15,17.15,0,0,0,2.12-8.68,19.58,19.58,0,0,0-1.81-8.75A12.54,12.54,0,0,0,131,50.44a21.69,21.69,0,0,0-10-2H103.81l.13-9.69h23.5l2.56,3.5A22.45,22.45,0,0,1,141.12,46a20.27,20.27,0,0,1,6.94,8,23.62,23.62,0,0,1,2.44,10.75,26.2,26.2,0,0,1-3.75,14.38A23.54,23.54,0,0,1,136.31,88,38.81,38.81,0,0,1,120.44,91Z" transform="translate(-7.45 0)"/><path d="M9.9,100.78V115H7.45V100.78Zm8.54,0-5.76,6.85L9.4,111.1,9,108.67l2.34-2.89,4.14-5ZM15.8,115l-4.67-6.74,1.69-1.67L18.71,115Zm10-2.12v-5a2.15,2.15,0,0,0-.2-1,1.47,1.47,0,0,0-.63-.63,2.1,2.1,0,0,0-1-.22,2.38,2.38,0,0,0-1,.19,1.64,1.64,0,0,0-.65.53,1.24,1.24,0,0,0-.24.75H19.71a2.61,2.61,0,0,1,.3-1.21,3.48,3.48,0,0,1,.88-1,4.75,4.75,0,0,1,1.38-.72,5.88,5.88,0,0,1,1.8-.26,5.22,5.22,0,0,1,2.11.4,3.25,3.25,0,0,1,1.45,1.21,3.5,3.5,0,0,1,.54,2v4.7a7.39,7.39,0,0,0,.1,1.3,4,4,0,0,0,.3,1V115H26.16a4.42,4.42,0,0,1-.27-1A7.62,7.62,0,0,1,25.8,112.88Zm.35-4.31,0,1.46H24.48a4.52,4.52,0,0,0-1.16.13,2.24,2.24,0,0,0-.83.35,1.46,1.46,0,0,0-.49.56,1.73,1.73,0,0,0-.17.76,1.58,1.58,0,0,0,.2.77,1.39,1.39,0,0,0,.56.54,2.15,2.15,0,0,0,.92.19,2.66,2.66,0,0,0,1.26-.29,2.84,2.84,0,0,0,.86-.73,1.57,1.57,0,0,0,.33-.84l.76,1a3.62,3.62,0,0,1-.4.86,4.22,4.22,0,0,1-.74.88,3.65,3.65,0,0,1-2.53.93,4,4,0,0,1-1.84-.4,3.26,3.26,0,0,1-1.27-1.13,2.86,2.86,0,0,1-.46-1.61,3.32,3.32,0,0,1,.31-1.48,2.92,2.92,0,0,1,.94-1.1,4.51,4.51,0,0,1,1.52-.66,8,8,0,0,1,2.05-.24Zm6.83-2V115H30.63V104.43h2.22Zm-.38,2.75h-.8a7.27,7.27,0,0,1,.27-2,5,5,0,0,1,.81-1.61,3.52,3.52,0,0,1,1.3-1.06,4.1,4.1,0,0,1,1.83-.38,4,4,0,0,1,1.32.21,2.64,2.64,0,0,1,1,.66,2.92,2.92,0,0,1,.69,1.15,5.28,5.28,0,0,1,.24,1.7v7H37v-6.84a2.57,2.57,0,0,0-.24-1.21,1.27,1.27,0,0,0-.65-.62,2.39,2.39,0,0,0-1-.2,2.33,2.33,0,0,0-1.13.26,2.07,2.07,0,0,0-.75.69,2.94,2.94,0,0,0-.43,1A5.32,5.32,0,0,0,32.6,109.33Zm6.55-.63-1.1.24a6.27,6.27,0,0,1,.26-1.8,4.59,4.59,0,0,1,.8-1.5,3.7,3.7,0,0,1,1.29-1,4,4,0,0,1,1.77-.37,4.37,4.37,0,0,1,1.45.22,2.64,2.64,0,0,1,1.09.69,2.94,2.94,0,0,1,.68,1.22,5.83,5.83,0,0,1,.24,1.79V115H43.27v-6.85a2.65,2.65,0,0,0-.24-1.24,1.21,1.21,0,0,0-.64-.6,2.57,2.57,0,0,0-1-.18,2.16,2.16,0,0,0-1,.21,1.94,1.94,0,0,0-.69.55,2.57,2.57,0,0,0-.43.82A3.43,3.43,0,0,0,39.15,108.7Zm8.91-8.7h2.35v12.74L50.19,115H48.06Zm9.25,9.62v.2A8.14,8.14,0,0,1,57,112a4.66,4.66,0,0,1-.78,1.7A3.6,3.6,0,0,1,55,114.81a3.77,3.77,0,0,1-1.76.38,3.73,3.73,0,0,1-1.72-.37,3.36,3.36,0,0,1-1.23-1,5.75,5.75,0,0,1-.79-1.63,9.9,9.9,0,0,1-.43-2.09v-.66a9.68,9.68,0,0,1,.43-2.08,5.68,5.68,0,0,1,.79-1.64,3.44,3.44,0,0,1,1.22-1.06,3.71,3.71,0,0,1,1.71-.37,3.89,3.89,0,0,1,1.78.39,3.41,3.41,0,0,1,1.3,1.11,4.73,4.73,0,0,1,.77,1.7A8.24,8.24,0,0,1,57.31,109.62Zm-2.35.2v-.2a7.11,7.11,0,0,0-.12-1.34,3.64,3.64,0,0,0-.39-1.11,2,2,0,0,0-.73-.75,2,2,0,0,0-1.12-.29,2.35,2.35,0,0,0-1.07.22,2.16,2.16,0,0,0-.75.58,2.69,2.69,0,0,0-.48.86,5,5,0,0,0-.23,1.06v1.76a4.48,4.48,0,0,0,.37,1.35,2.54,2.54,0,0,0,.82,1,2.39,2.39,0,0,0,1.36.36,2.16,2.16,0,0,0,1.1-.26,2,2,0,0,0,.72-.73,3.7,3.7,0,0,0,.39-1.12A7.33,7.33,0,0,0,55,109.82ZM61.82,100v15H59.46V100Zm7.24,15.19a5.52,5.52,0,0,1-2.12-.38,4.62,4.62,0,0,1-1.6-1.08,4.71,4.71,0,0,1-1-1.63,5.83,5.83,0,0,1-.35-2v-.39a6.64,6.64,0,0,1,.36-2.25,5.15,5.15,0,0,1,1-1.72,4.24,4.24,0,0,1,1.52-1.1,4.64,4.64,0,0,1,1.9-.38,4.74,4.74,0,0,1,2,.38,3.72,3.72,0,0,1,1.4,1.07,4.43,4.43,0,0,1,.84,1.63,7.28,7.28,0,0,1,.29,2.09v1H65.12v-1.69H71v-.19a3.37,3.37,0,0,0-.25-1.19,1.93,1.93,0,0,0-.7-.89,2.06,2.06,0,0,0-1.25-.35,2.08,2.08,0,0,0-1,.26,2,2,0,0,0-.75.71,3.53,3.53,0,0,0-.47,1.13,6.1,6.1,0,0,0-.16,1.48v.39a4.15,4.15,0,0,0,.19,1.29,3.15,3.15,0,0,0,.56,1,2.67,2.67,0,0,0,.9.7,2.86,2.86,0,0,0,1.2.24,3.27,3.27,0,0,0,1.52-.34,3.53,3.53,0,0,0,1.15-1l1.24,1.2a4.66,4.66,0,0,1-.89,1,4.39,4.39,0,0,1-1.34.73A5.25,5.25,0,0,1,69.06,115.19Zm11.63-6.62H77.06l0-1.78h3.17a3.45,3.45,0,0,0,1.36-.24,1.92,1.92,0,0,0,.86-.69,2,2,0,0,0,.29-1.1,2.25,2.25,0,0,0-.27-1.17,1.63,1.63,0,0,0-.84-.65,4.15,4.15,0,0,0-1.43-.21H77.81V115H75.36V100.78h4.82a8.79,8.79,0,0,1,2.09.23,4.27,4.27,0,0,1,1.57.7,2.93,2.93,0,0,1,1,1.19,4,4,0,0,1,.34,1.72,3.08,3.08,0,0,1-1.66,2.79,4.85,4.85,0,0,1-2,.55ZM80.58,115H76.29l1.11-1.94h3.18a3.18,3.18,0,0,0,1.39-.28,1.94,1.94,0,0,0,.83-.77,2.29,2.29,0,0,0,.28-1.16,2.79,2.79,0,0,0-.24-1.2,1.66,1.66,0,0,0-.78-.79,2.87,2.87,0,0,0-1.37-.29H77.93l0-1.78h3.59l.55.67A3.79,3.79,0,0,1,84,108a3,3,0,0,1,1.13,1.24,3.65,3.65,0,0,1,.37,1.64,4.2,4.2,0,0,1-.59,2.28,3.71,3.71,0,0,1-1.69,1.39A6.84,6.84,0,0,1,80.58,115Zm9.54-8.56V115H87.77V104.43H90Zm3.23-2.08,0,2.19-.46-.06-.49,0a2.93,2.93,0,0,0-1.07.18,2,2,0,0,0-.77.49,2.17,2.17,0,0,0-.47.76,3.49,3.49,0,0,0-.19,1l-.54,0a7.69,7.69,0,0,1,.2-1.84,5,5,0,0,1,.58-1.49,3,3,0,0,1,1-1,2.67,2.67,0,0,1,1.39-.36,2.45,2.45,0,0,1,.46,0A1.73,1.73,0,0,1,93.35,104.36Zm.77,5.47v-.22a6.59,6.59,0,0,1,.34-2.12,5.08,5.08,0,0,1,1-1.71A4.37,4.37,0,0,1,97,104.65a5.43,5.43,0,0,1,4.14,0,4.29,4.29,0,0,1,1.55,1.13,5,5,0,0,1,1,1.71,6.59,6.59,0,0,1,.33,2.12v.22a6.54,6.54,0,0,1-.33,2.12,5.14,5.14,0,0,1-1,1.71,4.46,4.46,0,0,1-1.54,1.13,5,5,0,0,1-2.06.4,5.08,5.08,0,0,1-2.08-.4,4.5,4.5,0,0,1-1.55-1.13,5.12,5.12,0,0,1-1-1.71A6.54,6.54,0,0,1,94.12,109.83Zm2.36-.22v.22a6.43,6.43,0,0,0,.14,1.35,3.5,3.5,0,0,0,.46,1.11,2.19,2.19,0,0,0,2,1,2.28,2.28,0,0,0,1.13-.27,2.42,2.42,0,0,0,.8-.76,3.28,3.28,0,0,0,.46-1.11,5.81,5.81,0,0,0,.16-1.35v-.22a5.7,5.7,0,0,0-.16-1.33,3.32,3.32,0,0,0-.47-1.12,2.16,2.16,0,0,0-.8-.76,2.41,2.41,0,0,0-2.29,0,2.23,2.23,0,0,0-.8.76,3.77,3.77,0,0,0-.46,1.12A6.31,6.31,0,0,0,96.48,109.61Zm14.29-5.18v1.72h-6v-1.72Zm-4.24-2.58h2.35v10.23a1.64,1.64,0,0,0,.14.75.7.7,0,0,0,.4.34,1.78,1.78,0,0,0,.59.09,3.48,3.48,0,0,0,.47,0l.36-.06V115a6.29,6.29,0,0,1-.68.16,5.7,5.7,0,0,1-.88.06,3.38,3.38,0,0,1-1.43-.28,2,2,0,0,1-1-1,3.57,3.57,0,0,1-.35-1.73Zm8.38-1.85v15h-2.35V100Zm-.41,9.33h-.77a6.91,6.91,0,0,1,.31-2,5.24,5.24,0,0,1,.84-1.61,3.72,3.72,0,0,1,1.31-1.06,3.62,3.62,0,0,1,1.69-.38,4.38,4.38,0,0,1,1.4.21,2.84,2.84,0,0,1,1.1.7,3,3,0,0,1,.69,1.23,6.06,6.06,0,0,1,.24,1.83V115H119v-6.81a2.74,2.74,0,0,0-.23-1.21,1.27,1.27,0,0,0-.63-.64,2.28,2.28,0,0,0-1-.21,2.3,2.3,0,0,0-1.92,1,3.22,3.22,0,0,0-.49,1A4.82,4.82,0,0,0,114.5,109.33Zm13.85,5.86a5.56,5.56,0,0,1-2.12-.38,4.54,4.54,0,0,1-2.6-2.71,5.61,5.61,0,0,1-.35-2v-.39a6.64,6.64,0,0,1,.36-2.25,5.13,5.13,0,0,1,1-1.72,4.28,4.28,0,0,1,1.53-1.1,4.61,4.61,0,0,1,1.9-.38,4.67,4.67,0,0,1,2,.38,3.68,3.68,0,0,1,1.41,1.07,4.43,4.43,0,0,1,.84,1.63,7.29,7.29,0,0,1,.28,2.09v1h-8.16v-1.69h5.84v-.19a3.38,3.38,0,0,0-.26-1.19,2,2,0,0,0-.69-.89,2.06,2.06,0,0,0-1.25-.35,2.08,2.08,0,0,0-1,.26,2.06,2.06,0,0,0-.76.71,4,4,0,0,0-.47,1.13,6.67,6.67,0,0,0-.15,1.48v.39a4.47,4.47,0,0,0,.18,1.29,3,3,0,0,0,.57,1,2.67,2.67,0,0,0,.9.7,2.86,2.86,0,0,0,1.2.24A3.2,3.2,0,0,0,130,113a3.46,3.46,0,0,0,1.16-1l1.24,1.2a5,5,0,0,1-.89,1,4.51,4.51,0,0,1-1.34.73A5.31,5.31,0,0,1,128.35,115.19Zm8.43-8.75V115h-2.35V104.43h2.24Zm3.23-2.08,0,2.19-.47-.06-.48,0a2.93,2.93,0,0,0-1.07.18,2,2,0,0,0-.77.49,2.17,2.17,0,0,0-.47.76,3.49,3.49,0,0,0-.19,1l-.54,0a8.24,8.24,0,0,1,.2-1.84,5,5,0,0,1,.58-1.49,3,3,0,0,1,1-1,2.67,2.67,0,0,1,1.39-.36,2.45,2.45,0,0,1,.46,0A1.73,1.73,0,0,1,140,104.36Zm7.41,7.78a1.17,1.17,0,0,0-.18-.64,1.5,1.5,0,0,0-.67-.52,6.41,6.41,0,0,0-1.45-.43,13.53,13.53,0,0,1-1.54-.44,5,5,0,0,1-1.19-.64,2.57,2.57,0,0,1-.77-.88,2.36,2.36,0,0,1-.28-1.17,2.83,2.83,0,0,1,.28-1.22,3,3,0,0,1,.82-1,3.79,3.79,0,0,1,1.27-.7,5.37,5.37,0,0,1,1.7-.25,5.27,5.27,0,0,1,2.28.45,3.31,3.31,0,0,1,1.46,1.2,3,3,0,0,1,.51,1.7h-2.35a1.61,1.61,0,0,0-.84-1.38,2.22,2.22,0,0,0-1.06-.23,2.29,2.29,0,0,0-1,.19,1.45,1.45,0,0,0-.59.49,1.26,1.26,0,0,0-.18.66,1.21,1.21,0,0,0,.09.48,1.08,1.08,0,0,0,.36.38,2.9,2.9,0,0,0,.66.32c.29.09.65.19,1.07.28a10.23,10.23,0,0,1,2.08.65,3.26,3.26,0,0,1,1.35,1,2.52,2.52,0,0,1,.47,1.56,2.79,2.79,0,0,1-.3,1.29,3,3,0,0,1-.86,1,4.19,4.19,0,0,1-1.36.65,6,6,0,0,1-1.76.23,5.32,5.32,0,0,1-2.43-.5,3.93,3.93,0,0,1-1.51-1.32,3.11,3.11,0,0,1-.51-1.68h2.28a1.67,1.67,0,0,0,.36,1,1.88,1.88,0,0,0,.82.56,3.21,3.21,0,0,0,1,.17,3,3,0,0,0,1.07-.17,1.54,1.54,0,0,0,.65-.47A1.12,1.12,0,0,0,147.42,112.14Z" transform="translate(-7.45 0)"/></g></svg>