<svg id="Layer_1" data-name="Layer 1" xmlns="http://www.w3.org/2000/svg" xmlns:xlink="http://www.w3.org/1999/xlink" viewBox="0 0 142.5 93"><defs><style>.cls-1{fill:none;}.cls-2{clip-path:url(#clip-path);}.cls-3{fill:#fff;}</style><clipPath id="clip-path" transform="translate(0 2)"><rect class="cls-1" width="140" height="89"/></clipPath></defs><g class="cls-2"><rect class="cls-3" y="2" width="140" height="89"/><rect y="2" width="140" height="89"/><path class="cls-3" d="M14.62-2V89H2.56V-2ZM69.56-2,31.75,40.44,10.5,62.5l-2-12.87L24.5,32,55.06-2ZM57.94,89,24.25,44.63l7.19-9.57L72.31,89Z" transform="translate(0 2)"/><path class="cls-3" d="M113,48.44H89.94l-.13-9.69h20.94A21.76,21.76,0,0,0,119.81,37a13.62,13.62,0,0,0,6-5A13.94,13.94,0,0,0,128,24.13,15.24,15.24,0,0,0,126.06,16a10.67,10.67,0,0,0-5.81-4.62,27.62,27.62,0,0,0-9.87-1.5H92.62V91H80.56V0h29.82a49.53,49.53,0,0,1,12.5,1.44,24.34,24.34,0,0,1,9.31,4.37,18.63,18.63,0,0,1,5.87,7.5,27,27,0,0,1,2,10.94,18.77,18.77,0,0,1-2.87,10.19,22.1,22.1,0,0,1-8,7.37,31.3,31.3,0,0,1-11.88,3.69ZM112.44,91H85.19L92,81.19h20.44a21.7,21.7,0,0,0,9.75-2,14.31,14.31,0,0,0,6.19-5.63,17.15,17.15,0,0,0,2.12-8.68,19.58,19.58,0,0,0-1.81-8.75A12.54,12.54,0,0,0,123,50.44a21.69,21.69,0,0,0-10-2H95.81l.13-9.69h23.5l2.56,3.5A22.45,22.45,0,0,1,133.12,46a20.27,20.27,0,0,1,6.94,8,23.62,23.62,0,0,1,2.44,10.75,26.2,26.2,0,0,1-3.75,14.38A23.54,23.54,0,0,1,128.31,88,38.81,38.81,0,0,1,112.44,91Z" transform="translate(0 2)"/></g></svg>